<?xml version="1.0" standalone="no"?>
<!DOCTYPE svg PUBLIC "-//W3C//DTD SVG 20010904//EN"
 "http://www.w3.org/TR/2001/REC-SVG-20010904/DTD/svg10.dtd">
<svg version="1.0" xmlns="http://www.w3.org/2000/svg"
 width="516.000000pt" height="672.000000pt" viewBox="0 0 516.000000 672.000000"
 preserveAspectRatio="xMidYMid meet">

<g transform="translate(0.000000,672.000000) scale(0.100000,-0.100000)"
fill="#000000" stroke="none">
<path d="M2108 5223 c29 -6 28 -22 -4 -86 -61 -120 -193 -287 -228 -287 -3 0
15 30 40 67 65 95 105 178 102 214 -2 25 -4 28 -14 15 -6 -9 -14 -13 -17 -9
-4 3 -7 2 -7 -4 0 -11 -71 -63 -86 -63 -5 1 11 20 36 43 25 23 37 35 25 27
-11 -8 -34 -27 -51 -43 -27 -24 -34 -26 -58 -17 -71 27 -206 -11 -265 -74
l-24 -26 39 1 c38 1 38 2 9 9 -33 8 -31 9 38 14 27 2 51 7 55 11 4 4 -5 5 -20
3 -16 -3 -28 -2 -28 2 0 10 26 20 53 20 12 0 29 5 37 11 12 8 9 10 -12 6 -15
-2 -25 0 -22 5 8 13 134 7 172 -8 18 -7 44 -22 57 -32 l24 -19 -50 -76 c-27
-42 -61 -85 -76 -97 -24 -18 -24 -20 -5 -17 32 5 98 56 181 140 82 83 101 109
83 115 -17 5 5 42 26 43 9 0 12 3 6 5 -9 4 -8 16 3 44 19 47 12 70 -19 69
l-23 -2 23 -4z m-98 -115 c0 -19 -12 -34 -38 -47 -16 -8 -21 -18 -17 -29 5
-13 1 -12 -17 3 -13 11 -25 21 -26 22 -6 3 80 63 90 63 4 0 8 -6 8 -12z m-25
-58 c-3 -5 -12 -10 -18 -10 -7 0 -6 4 3 10 19 12 23 12 15 0z m96 -7 c-5 -10
-21 -29 -36 -43 l-28 -25 28 43 c27 41 56 61 36 25z"/>
<path d="M2812 5214 c-14 -6 52 -44 76 -44 31 0 91 -24 118 -46 l29 -24 -28
10 c-37 13 -60 13 -52 -1 4 -6 8 -24 9 -40 1 -17 6 -34 12 -37 21 -16 11 -28
-19 -24 -25 3 -29 1 -17 -7 11 -9 4 -10 -30 -6 -44 5 -45 5 -10 -6 19 -6 53
-9 76 -7 23 1 40 -1 37 -5 -7 -12 31 -4 39 8 25 33 -17 183 -48 171 -7 -3 -13
0 -11 6 6 30 -138 71 -181 52z m58 -19 c16 -19 1 -19 -24 0 -16 12 -17 15 -4
15 8 0 21 -7 28 -15z m67 -2 c12 -3 24 -11 27 -19 6 -16 -10 -19 -19 -4 -4 6
-10 8 -15 5 -4 -3 -19 4 -31 16 -21 18 -21 20 -4 14 11 -4 30 -10 42 -12z m95
-117 c7 -11 13 -36 13 -54 2 -29 0 -31 -15 -17 -9 8 -20 12 -25 8 -4 -5 -5 -3
-2 3 3 6 -4 19 -16 29 -29 25 -6 33 31 10 22 -14 21 -12 -6 12 -18 15 -32 31
-32 35 0 14 41 -6 52 -26z"/>
<path d="M2009 5179 l-24 -20 28 17 c15 9 27 18 27 20 0 8 -8 4 -31 -17z"/>
<path d="M2752 5171 c-37 -35 -40 -41 -12 -34 20 5 106 -21 125 -39 6 -6 5
-12 -5 -18 -10 -7 -11 -10 -2 -10 6 0 12 -8 13 -17 0 -11 3 -13 6 -5 3 8 17
11 41 8 l37 -5 -37 10 c-50 14 -49 29 2 22 l39 -6 -12 27 c-7 14 -17 26 -24
26 -6 0 -20 3 -30 6 -15 6 -16 4 -5 -7 14 -16 16 -29 2 -29 -5 0 -12 11 -16
24 -3 14 -13 27 -21 31 -13 4 -14 3 -3 -10 7 -9 9 -19 5 -23 -4 -4 -10 -1 -12
6 -3 6 -9 10 -14 6 -5 -3 -9 -1 -9 5 0 6 -6 8 -14 5 -8 -3 -23 -1 -33 6 -16
10 -15 11 9 7 38 -6 59 10 25 18 -15 4 -24 11 -21 16 9 16 -1 10 -34 -20z
m182 -67 c4 -10 1 -14 -6 -12 -15 5 -23 28 -10 28 5 0 13 -7 16 -16z"/>
<path d="M2067 5173 c-10 -10 -8 -41 2 -48 5 -3 13 0 17 6 5 8 3 9 -6 4 -10
-6 -12 -1 -8 19 6 28 5 30 -5 19z"/>
<path d="M2148 5123 c6 -2 18 -2 25 0 6 3 1 5 -13 5 -14 0 -19 -2 -12 -5z"/>
<path d="M2716 5105 c-3 -8 -4 -15 -3 -15 1 0 17 4 35 9 18 6 30 6 27 1 -3 -4
2 -11 11 -14 8 -3 12 -2 9 4 -3 6 1 7 9 4 9 -3 16 -2 16 4 0 9 -45 22 -80 22
-10 0 -20 -7 -24 -15z"/>
<path d="M2182 5049 c-24 -27 -48 -46 -54 -43 -5 4 -3 13 6 23 9 10 16 21 16
26 0 4 -10 -5 -22 -21 -13 -15 -23 -33 -23 -39 0 -5 -4 -10 -10 -10 -5 0 -9 4
-7 9 2 5 -4 4 -12 -3 -9 -7 -14 -17 -11 -21 3 -5 -33 -39 -80 -76 -47 -37 -85
-69 -85 -70 0 -2 23 -2 51 0 38 2 54 8 62 22 10 18 11 18 18 -6 6 -19 8 -13 7
21 -2 46 -1 47 76 113 75 64 122 113 115 120 -2 2 -24 -18 -47 -45z m-152
-164 c0 -8 -8 -15 -17 -15 -10 0 -29 -9 -43 -20 -14 -11 -29 -20 -35 -20 -5 0
12 16 39 35 57 40 56 40 56 20z"/>
<path d="M2730 5081 c0 -5 16 -23 35 -40 38 -33 56 -41 35 -16 -7 8 -9 15 -4
15 4 0 -3 11 -16 25 -23 25 -50 33 -50 16z m45 -21 c3 -5 1 -10 -4 -10 -6 0
-11 5 -11 10 0 6 2 10 4 10 3 0 8 -4 11 -10z"/>
<path d="M2837 5059 c7 -7 15 -10 18 -7 3 3 -2 9 -12 12 -14 6 -15 5 -6 -5z"/>
<path d="M2680 5008 c1 -41 1 -42 14 -20 13 24 13 24 13 -7 0 -16 -4 -28 -9
-25 -21 13 -4 -20 28 -56 31 -34 39 -38 52 -28 13 11 15 10 9 -4 -4 -13 -2
-15 10 -11 10 4 14 2 10 -4 -4 -6 3 -8 18 -5 15 2 25 11 25 21 0 14 -2 14 -10
1 -10 -17 -15 -14 -25 18 -6 21 -4 23 14 17 12 -3 21 -4 21 -1 0 2 -29 14 -64
26 -35 11 -67 28 -70 36 -6 16 9 19 19 4 9 -14 76 -41 89 -37 6 3 -1 10 -16
17 -16 7 -28 18 -28 23 0 5 7 4 15 -3 9 -7 17 -11 19 -9 2 2 -10 15 -27 29
l-30 24 5 -27 c3 -15 2 -27 -2 -27 -12 0 -44 40 -37 47 6 5 -29 43 -40 43 -1
0 -3 -19 -3 -42z m88 -83 c17 -3 32 -10 32 -15 0 -5 3 -17 6 -27 4 -14 4 -15
-4 -4 -5 7 -15 10 -21 7 -15 -10 -71 31 -71 51 0 11 4 13 13 5 6 -5 27 -13 45
-17z"/>
<path d="M2827 5019 c12 -12 24 -21 27 -18 2 2 -8 13 -22 23 l-27 19 22 -24z"/>
<path d="M2938 5023 c7 -3 16 -2 19 1 4 3 -2 6 -13 5 -11 0 -14 -3 -6 -6z"/>
<path d="M1540 4950 c-10 -19 -10 -24 1 -31 8 -4 16 -7 19 -6 3 0 16 -5 30
-12 24 -12 24 -11 5 4 -11 9 -20 19 -20 23 0 4 -5 16 -12 26 -10 18 -11 18
-23 -4z m26 -26 c2 -12 -1 -13 -12 -3 -7 6 -11 16 -8 21 7 11 17 3 20 -18z"/>
<path d="M1588 4963 c7 -3 16 -2 19 1 4 3 -2 6 -13 5 -11 0 -14 -3 -6 -6z"/>
<path d="M2878 4963 c6 -2 18 -2 25 0 6 3 1 5 -13 5 -14 0 -19 -2 -12 -5z"/>
<path d="M2833 4940 c1 -11 5 -20 9 -20 3 0 6 9 5 20 -1 11 -5 20 -9 20 -3 0
-6 -9 -5 -20z"/>
<path d="M2959 4941 c6 -10 8 -21 5 -24 -8 -7 51 -1 64 7 17 10 15 23 -3 23
-8 0 -15 -4 -15 -9 0 -4 -5 -8 -11 -8 -5 0 -7 5 -4 10 3 6 2 10 -4 10 -5 0
-12 -6 -14 -12 -3 -8 -6 -6 -6 5 -1 9 -6 17 -11 17 -7 0 -7 -6 -1 -19z"/>
<path d="M2878 4913 c7 -3 16 -2 19 1 4 3 -2 6 -13 5 -11 0 -14 -3 -6 -6z"/>
<path d="M1524 4839 c6 -66 6 -67 -25 -93 -47 -40 -60 -31 -14 10 l40 36 -40
-30 c-64 -48 -145 -129 -145 -146 0 -23 29 -34 73 -28 38 5 39 4 33 -19 -7
-22 -6 -23 5 -4 22 36 59 48 59 20 0 -26 25 -16 106 42 108 78 185 126 191
120 6 -7 -179 -154 -230 -182 -23 -14 -34 -25 -25 -27 17 -6 -46 -39 -92 -49
-32 -6 -32 -7 -7 -8 37 -1 97 30 184 96 71 54 72 54 120 45 27 -5 58 -5 69 -1
10 5 36 15 56 23 26 10 36 19 32 30 -5 12 -14 10 -49 -13 -33 -21 -52 -26 -77
-23 -28 4 -30 6 -13 13 18 7 18 8 -5 9 -23 1 -23 2 -5 10 11 5 14 9 7 9 -27 2
0 20 39 26 29 5 38 10 28 16 -10 6 -5 9 16 10 30 2 30 2 -5 9 -19 4 -28 8 -20
9 13 1 13 3 0 11 -11 6 -59 -13 -165 -66 -186 -92 -315 -124 -315 -77 0 12 3
13 14 4 8 -7 27 -11 43 -8 27 4 27 4 -4 6 -18 0 -33 4 -33 7 0 14 42 64 50 59
5 -3 11 -1 15 5 3 5 11 10 18 10 8 0 8 -3 -1 -12 -19 -19 -14 -28 16 -27 25 2
25 2 3 6 -23 5 -22 7 25 54 45 46 48 47 61 29 17 -24 1 -55 -37 -69 l-25 -9
25 -1 c23 -1 264 109 256 116 -3 3 -89 -34 -158 -68 -10 -5 -20 -9 -22 -9 -7
0 0 29 9 37 4 4 5 2 1 -4 -4 -7 -3 -13 2 -13 21 0 20 14 -2 31 -30 24 -43 24
-25 2 13 -16 12 -17 -3 -5 -10 8 -16 19 -15 25 1 7 -4 11 -11 9 -8 -1 -11 2
-7 8 3 6 12 8 18 4 7 -3 2 3 -10 14 -13 11 -23 27 -23 36 0 12 12 7 46 -19 25
-19 51 -35 57 -35 6 0 0 8 -13 17 -14 9 -27 19 -30 22 -3 3 -20 20 -39 36
l-34 30 7 -66z m-74 -123 c0 -2 -8 -10 -17 -17 -16 -13 -17 -12 -4 4 13 16 21
21 21 13z m116 -24 c-18 -16 -18 -16 -6 6 6 13 14 21 18 18 3 -4 -2 -14 -12
-24z m74 -36 c0 -5 -106 -76 -114 -76 -3 0 -6 8 -6 18 0 12 16 25 48 39 46 20
72 27 72 19z m30 -40 c0 -2 -8 -10 -17 -17 -16 -13 -17 -12 -4 4 13 16 21 21
21 13z m-85 -66 c-3 -5 -12 -10 -18 -10 -7 0 -6 4 3 10 19 12 23 12 15 0z"/>
<path d="M2970 4890 c13 -9 11 -13 -10 -31 -14 -11 -18 -17 -10 -13 8 4 23 14
33 22 13 12 15 17 5 24 -19 11 -36 10 -18 -2z"/>
<path d="M2890 4886 c0 -2 14 -6 30 -8 17 -3 30 -1 30 4 0 4 -13 8 -30 8 -16
0 -30 -2 -30 -4z"/>
<path d="M2301 4866 c-44 -16 -60 -39 -45 -63 7 -10 22 -17 34 -15 19 2 21 -1
16 -30 l-6 -33 15 32 c16 35 42 46 96 41 54 -5 34 -23 -25 -23 -39 0 -52 -3
-49 -12 3 -7 11 -13 19 -13 8 0 14 -6 14 -12 0 -9 3 -10 8 -2 11 17 70 25 75
11 2 -7 4 3 5 21 0 18 6 40 13 48 11 14 14 13 21 0 5 -9 6 -21 3 -27 -4 -6 -1
-9 6 -8 18 4 59 -10 59 -20 0 -16 37 -8 49 12 13 19 10 24 -25 54 -56 49 -78
52 -110 14 -23 -27 -32 -31 -77 -31 -57 0 -60 10 -3 12 20 1 36 5 36 10 0 4
-4 8 -9 8 -5 0 -13 9 -16 20 -7 23 -50 26 -104 6z m89 -16 c0 -13 -7 -20 -19
-20 -31 0 -55 -12 -41 -20 8 -5 7 -9 -5 -13 -9 -4 -13 -3 -10 3 9 14 -9 12
-23 -2 -14 -14 -19 -10 -24 17 -2 14 7 25 32 37 49 25 90 24 90 -2z m170 -16
c43 -28 52 -54 21 -54 -24 0 -81 47 -81 66 0 20 15 17 60 -12z"/>
<path d="M2293 4843 c-7 -3 -13 -14 -13 -26 0 -20 1 -20 16 -5 18 18 16 37 -3
31z"/>
<path d="M2871 4864 c0 -11 3 -14 6 -6 3 7 2 16 -1 19 -3 4 -6 -2 -5 -13z"/>
<path d="M1870 4809 c-10 -6 0 -9 34 -9 54 0 57 4 11 13 -17 3 -37 2 -45 -4z"/>
<path d="M2031 4799 c-1 -9 -10 -28 -22 -43 -11 -14 -16 -26 -10 -26 14 0 44
58 37 73 -2 7 -5 5 -5 -4z"/>
<path d="M2183 4778 c-54 -61 -69 -108 -34 -108 11 0 27 -10 37 -22 l16 -23
-6 28 c-8 33 2 56 15 36 6 -10 9 -3 9 20 l0 34 -20 -25 c-17 -22 -60 -44 -60
-31 0 24 68 105 82 97 4 -3 8 0 8 5 0 19 -26 12 -47 -11z"/>
<path d="M1830 4780 c0 -5 7 -10 16 -10 8 0 12 5 9 10 -3 6 -10 10 -16 10 -5
0 -9 -4 -9 -10z"/>
<path d="M1870 4780 c0 -5 9 -10 20 -10 11 0 20 5 20 10 0 6 -9 10 -20 10 -11
0 -20 -4 -20 -10z"/>
<path d="M2236 4775 c-3 -9 0 -15 9 -15 9 0 12 6 9 15 -4 8 -7 15 -9 15 -2 0
-5 -7 -9 -15z"/>
<path d="M2610 4740 c0 -5 3 -10 8 -10 4 0 15 -12 24 -27 12 -20 18 -23 18
-11 0 9 -5 20 -11 24 -8 4 -7 9 2 15 20 13 23 12 41 -19 12 -21 14 -32 6 -46
-9 -16 -8 -18 5 -13 22 8 28 -29 7 -48 -16 -15 -18 -13 -24 25 -3 22 -11 40
-16 40 -11 0 -4 -42 11 -72 6 -11 5 -18 -4 -21 -9 -3 -9 -8 2 -21 12 -14 12
-18 -5 -30 -10 -8 -25 -11 -34 -8 -13 5 -13 3 -2 -11 8 -9 11 -25 7 -37 -10
-32 3 -23 21 15 18 39 30 44 37 18 3 -10 5 -3 6 15 0 17 -3 32 -9 32 -18 0
-10 26 15 48 28 25 27 47 -7 115 -17 33 -22 37 -58 37 -22 0 -40 -4 -40 -10z"/>
<path d="M1953 4694 c-18 -16 -21 -22 -8 -15 32 15 61 40 48 41 -7 0 -25 -12
-40 -26z"/>
<path d="M2505 4690 c-26 -27 -24 -45 1 -20 8 8 15 6 24 -5 11 -13 10 -18 -6
-31 -18 -14 -18 -15 2 -5 22 11 48 -1 55 -26 3 -8 9 -8 23 2 18 14 18 15 -6
24 -14 5 -35 22 -48 38 -20 25 -20 28 -5 31 10 2 29 -5 44 -15 40 -29 51 -35
51 -26 0 10 -80 63 -95 63 -6 0 -24 -13 -40 -30z"/>
<path d="M2256 4682 c-3 -5 20 -6 51 -4 44 4 55 2 51 -9 -3 -8 -23 -16 -46
-19 -38 -5 -40 -6 -26 -24 8 -11 14 -15 14 -10 0 16 68 35 74 20 3 -7 5 -6 5
2 1 7 6 10 11 7 6 -4 5 5 -2 19 -10 24 -17 26 -69 26 -32 0 -60 -4 -63 -8z"/>
<path d="M2236 4663 c1 -3 -1 -16 -6 -29 -6 -14 -6 -24 0 -24 13 0 24 41 13
50 -6 4 -9 5 -7 3z"/>
<path d="M2155 4607 c-31 -18 -35 -28 -33 -77 l1 -45 4 43 c7 72 27 51 36 -38
3 -30 5 -32 12 -13 4 12 14 24 24 26 15 4 14 5 -1 6 -26 2 -33 40 -11 56 14
10 14 13 3 13 -8 -1 -23 0 -34 0 -16 2 -16 4 5 22 27 22 24 25 -6 7z"/>
<path d="M2431 4588 c-14 -35 17 -82 54 -85 26 -2 27 -2 9 6 -24 10 -54 48
-54 67 0 32 62 22 100 -16 19 -19 27 -16 12 6 -31 45 -107 59 -121 22z"/>
<path d="M2330 4570 c0 -4 8 -10 18 -13 9 -2 26 -8 37 -13 17 -7 18 -6 7 8
-13 17 -62 31 -62 18z"/>
<path d="M2283 4563 c-15 -6 -17 -37 -3 -63 12 -22 61 -40 89 -33 33 8 24 19
-12 15 -25 -3 -38 2 -57 23 l-25 27 24 19 c21 18 13 24 -16 12z"/>
<path d="M2550 4515 c-8 -9 -8 -15 -2 -15 12 0 26 19 19 26 -2 2 -10 -2 -17
-11z"/>
<path d="M2554 4465 c-7 -17 -35 -20 -49 -6 -6 6 -19 3 -35 -9 l-25 -19 37 6
c24 3 43 1 53 -7 18 -15 20 -14 29 23 7 29 -1 38 -10 12z"/>
<path d="M2685 4444 c-16 -37 -17 -38 -31 -20 -8 11 -14 16 -14 10 0 -5 -10
-14 -22 -19 -14 -6 -24 -20 -25 -35 -3 -25 -3 -25 7 -2 12 28 36 38 54 23 7
-6 16 -7 20 -3 12 11 37 75 32 80 -3 2 -12 -13 -21 -34z"/>
<path d="M2130 4458 c0 -5 9 -12 20 -15 11 -3 18 -8 15 -12 -6 -10 32 -71 44
-71 5 0 9 9 8 19 0 10 -6 17 -13 14 -15 -5 -28 28 -15 37 6 3 -5 13 -24 22
-19 8 -35 11 -35 6z"/>
<path d="M2605 4450 c-3 -5 -2 -10 4 -10 5 0 13 5 16 10 3 6 2 10 -4 10 -5 0
-13 -4 -16 -10z"/>
<path d="M2231 4404 c13 -14 33 -30 44 -36 12 -6 6 4 -14 26 -19 20 -39 36
-45 36 -5 0 1 -12 15 -26z"/>
<path d="M2498 4393 c7 -3 16 -2 19 1 4 3 -2 6 -13 5 -11 0 -14 -3 -6 -6z"/>
<path d="M2443 4383 c9 -2 23 -2 30 0 6 3 -1 5 -18 5 -16 0 -22 -2 -12 -5z"/>
<path d="M1729 4351 c-42 -14 -72 -32 -106 -64 -25 -23 -30 -34 -21 -44 7 -8
15 -10 22 -4 6 5 81 11 168 12 86 2 151 0 145 -4 -8 -5 -4 -7 8 -5 11 2 29 -5
40 -15 18 -17 20 -17 23 -2 2 9 -6 27 -17 39 -12 12 -18 26 -14 31 5 4 2 5 -4
1 -7 -4 -13 -3 -13 2 0 16 -100 54 -154 58 -28 2 -63 0 -77 -5z m89 -8 c-10
-2 -28 -2 -40 0 -13 2 -5 4 17 4 22 1 32 -1 23 -4z m53 -22 c-9 -6 -9 -10 -2
-12 6 -2 -18 -4 -53 -4 -36 0 -59 4 -53 8 7 5 -6 6 -28 3 -28 -4 -34 -3 -20 4
26 11 175 13 156 1z m106 -55 c28 -28 28 -28 3 -15 -17 10 -69 15 -160 16
-181 4 -202 5 -193 14 13 12 51 15 190 14 132 0 133 0 160 -29z"/>
<path d="M1803 4283 c9 -2 25 -2 35 0 9 3 1 5 -18 5 -19 0 -27 -2 -17 -5z"/>
<path d="M2331 4344 c-1 -21 -31 -30 -31 -10 0 7 -18 11 -40 11 -36 0 -39 -1
-23 -12 9 -8 24 -11 31 -8 21 8 35 -5 21 -21 -9 -11 -3 -18 32 -34 52 -23 97
-26 105 -5 3 8 -1 21 -10 30 -8 9 -12 23 -9 33 4 13 2 13 -10 -3 -9 -11 -17
-15 -17 -8 0 7 -7 10 -15 7 -9 -4 -18 2 -24 17 -9 22 -10 23 -10 3z m65 -55
c23 -19 16 -32 -13 -26 -51 10 -84 27 -77 38 8 13 69 5 90 -12z"/>
<path d="M2499 4333 c-21 -5 -43 -53 -30 -66 16 -16 131 31 131 54 0 5 -12 0
-27 -11 -38 -28 -93 -43 -93 -26 0 19 19 32 60 44 35 10 35 10 5 10 -16 0 -37
-2 -46 -5z"/>
<path d="M1648 4233 c7 -3 16 -2 19 1 4 3 -2 6 -13 5 -11 0 -14 -3 -6 -6z"/>
<path d="M1768 4219 c20 -6 44 -6 65 0 28 8 24 9 -33 9 -57 0 -61 -1 -32 -9z"/>
<path d="M1626 4207 c-101 -24 -61 -33 154 -32 136 0 209 4 206 10 -2 6 -9 10
-17 9 -8 0 -58 -4 -111 -8 -90 -7 -98 -6 -98 10 0 14 -3 15 -12 6 -7 -7 -37
-11 -72 -11 l-61 2 60 12 c36 8 48 13 30 13 -16 0 -52 -5 -79 -11z m-13 -24
c-7 -2 -19 -2 -25 0 -7 3 -2 5 12 5 14 0 19 -2 13 -5z"/>
<path d="M1871 4216 c2 -2 22 -6 44 -9 28 -5 34 -4 20 3 -19 8 -73 14 -64 6z"/>
<path d="M2024 4198 c5 -22 3 -26 -9 -22 -8 4 -15 1 -15 -4 0 -6 9 -14 20 -17
11 -3 20 -13 20 -22 0 -9 -6 -13 -15 -9 -38 15 -48 16 -22 1 52 -30 68 18 27
82 -10 15 -10 14 -6 -9z"/>
<path d="M2913 4183 c15 -2 39 -2 55 0 15 2 2 4 -28 4 -30 0 -43 -2 -27 -4z"/>
<path d="M3018 4141 c9 -21 22 -37 28 -34 6 2 16 -11 22 -29 l10 -33 -2 40
c-3 45 -21 85 -38 85 -9 0 -9 -3 0 -12 7 -7 12 -19 12 -27 0 -9 -8 -1 -16 17
-23 45 -36 40 -16 -7z"/>
<path d="M2503 4163 c-6 -5 10 -9 35 -10 26 -1 84 -15 130 -32 45 -16 80 -26
77 -21 -6 10 -146 57 -195 65 -19 3 -40 2 -47 -2z"/>
<path d="M2895 4160 c-4 -6 -10 -8 -15 -5 -5 3 -18 -3 -29 -14 -14 -14 -21
-16 -25 -8 -3 7 -3 -1 0 -18 4 -22 3 -26 -5 -16 -7 11 -8 2 -4 -30 7 -53 13
-64 13 -22 0 33 19 97 27 89 3 -2 11 -22 18 -43 11 -28 14 -32 15 -15 0 13 7
36 15 52 14 27 5 54 -10 30z"/>
<path d="M2967 4164 c-10 -10 -9 -52 2 -58 5 -3 14 8 20 24 5 17 6 28 1 25 -4
-3 -10 0 -12 6 -2 5 -7 7 -11 3z m10 -36 c-3 -8 -6 -5 -6 6 -1 11 2 17 5 13 3
-3 4 -12 1 -19z"/>
<path d="M1590 4153 c-34 -6 -60 -32 -59 -57 0 -19 1 -19 8 -3 6 17 8 18 21 3
7 -10 19 -15 26 -12 8 3 13 0 11 -6 -1 -6 4 -13 11 -15 7 -3 11 1 10 7 -2 7 4
15 12 17 13 4 13 3 0 -7 -13 -10 -12 -11 5 -6 20 6 20 6 1 -9 -23 -17 -5 -20
26 -4 20 11 20 11 -3 23 -13 7 -37 20 -54 30 l-30 18 25 -21 c14 -11 20 -21
14 -21 -7 0 -22 9 -35 19 l-24 19 43 13 c34 10 52 10 90 0 26 -7 67 -14 92
-16 l45 -4 -45 9 c-25 4 -61 13 -80 19 -35 11 -64 12 -110 4z"/>
<path d="M2927 4153 c-11 -21 -17 -64 -7 -58 5 3 11 16 11 28 1 17 3 15 9 -8
l8 -30 1 32 c1 30 -13 52 -22 36z"/>
<path d="M1893 4143 c15 -2 37 -2 50 0 12 2 0 4 -28 4 -27 0 -38 -2 -22 -4z"/>
<path d="M3083 4137 c18 -15 24 -32 7 -22 -13 8 -13 2 2 -30 13 -28 28 -33 28
-9 0 8 -4 12 -10 9 -6 -3 -7 1 -4 10 9 22 16 12 41 -58 l22 -62 -3 46 c-3 52
-27 89 -71 114 -19 10 -24 11 -12 2z"/>
<path d="M1838 4133 c7 -3 16 -2 19 1 4 3 -2 6 -13 5 -11 0 -14 -3 -6 -6z"/>
<path d="M3001 4124 c0 -11 3 -14 6 -6 3 7 2 16 -1 19 -3 4 -6 -2 -5 -13z"/>
<path d="M1664 4118 c-7 -11 22 -39 40 -37 6 0 1 5 -11 11 -31 15 -29 32 2 26
13 -3 22 -1 19 3 -8 13 -42 11 -50 -3z"/>
<path d="M1903 4116 c0 -8 8 -11 19 -8 28 7 32 22 5 22 -13 0 -24 -6 -24 -14z"/>
<path d="M2490 4126 c0 -17 42 -66 93 -107 28 -24 43 -33 33 -21 -26 30 -12
28 32 -5 20 -16 33 -22 28 -15 -4 6 -3 12 3 12 5 0 13 -5 16 -10 4 -6 10 -8
15 -5 5 3 13 -2 18 -12 5 -9 18 -18 28 -19 14 -2 12 3 -11 22 -91 76 -135 116
-135 125 0 6 16 8 38 5 29 -4 32 -4 12 3 -62 22 -79 3 -35 -39 14 -13 23 -26
20 -29 -3 -2 -24 13 -48 35 -37 34 -38 35 -12 5 21 -24 25 -32 12 -28 -11 4
-16 3 -12 -3 3 -6 2 -10 -3 -10 -10 0 -52 44 -75 80 -10 13 -17 21 -17 16z
m160 -104 c7 2 14 -5 15 -14 3 -14 -1 -16 -14 -8 -10 5 -24 17 -32 27 -13 16
-12 17 2 5 9 -7 22 -11 29 -10z"/>
<path d="M1785 4095 c-62 -20 -67 -24 -44 -30 15 -4 38 -5 50 -2 21 4 20 5 -6
7 -25 2 -18 6 40 25 39 13 61 24 50 23 -11 0 -51 -10 -90 -23z"/>
<path d="M1970 4110 c8 -5 22 -10 30 -10 13 0 13 1 0 10 -8 5 -22 10 -30 10
-13 0 -13 -1 0 -10z"/>
<path d="M2850 4113 c0 -6 -3 -19 -7 -29 -4 -11 -3 -15 5 -11 6 4 13 -1 15
-10 3 -12 5 -10 6 7 0 14 -4 32 -9 40 -6 9 -10 10 -10 3z"/>
<path d="M2044 4096 c-3 -9 -9 -14 -13 -12 -3 2 -12 -3 -20 -11 -12 -13 -11
-14 8 -8 19 6 22 4 19 -11 -2 -12 -15 -21 -33 -25 l-30 -6 30 -5 c28 -5 27 -5
-10 -8 l-40 -3 35 -7 35 -7 -40 -2 -40 -2 29 -12 30 -13 -35 -26 c-19 -14 -47
-30 -63 -35 -17 -5 -32 -15 -34 -21 -3 -9 3 -10 22 -2 34 13 33 5 -1 -14 -17
-9 -22 -15 -12 -16 25 0 96 58 127 106 30 44 60 139 48 151 -3 3 -8 -2 -12
-11z"/>
<path d="M2770 4100 c-8 -5 -11 -12 -7 -17 5 -4 13 -1 18 7 7 11 8 3 4 -25
l-5 -40 11 34 c11 37 2 55 -21 41z"/>
<path d="M1558 4060 c2 -16 11 -31 19 -34 8 -4 11 -2 7 5 -3 6 5 3 19 -6 17
-11 34 -14 49 -9 22 7 22 7 -7 17 -16 5 -44 20 -61 32 l-30 23 4 -28z"/>
<path d="M2698 4083 c7 -3 16 -2 19 1 4 3 -2 6 -13 5 -11 0 -14 -3 -6 -6z"/>
<path d="M2725 4071 c-4 -7 0 -8 11 -4 14 5 15 1 10 -23 -3 -16 -1 -36 4 -44
8 -11 10 -3 8 29 -3 43 -19 63 -33 42z"/>
<path d="M1530 4065 c0 -5 5 -17 10 -25 5 -8 10 -10 10 -5 0 6 -5 17 -10 25
-5 8 -10 11 -10 5z"/>
<path d="M1858 4063 c6 -2 18 -2 25 0 6 3 1 5 -13 5 -14 0 -19 -2 -12 -5z"/>
<path d="M1665 4049 c-12 -4 21 -8 84 -8 57 -1 102 1 100 3 -9 8 -166 13 -184
5z"/>
<path d="M1930 4040 c8 -5 22 -9 30 -9 10 0 8 3 -5 9 -27 12 -43 12 -25 0z"/>
<path d="M3177 4010 c10 -45 10 -119 0 -147 -7 -18 -5 -21 13 -16 12 3 18 9
13 12 -4 3 -8 41 -8 83 0 49 -5 82 -13 90 -10 10 -11 6 -5 -22z"/>
<path d="M1886 4021 c-19 -7 -19 -8 2 -13 12 -4 20 -2 17 2 -3 5 1 11 7 13 7
3 9 5 3 6 -5 0 -19 -4 -29 -8z"/>
<path d="M1550 4004 c0 -6 7 -19 16 -30 14 -18 14 -18 3 6 -14 31 -19 36 -19
24z"/>
<path d="M1736 3995 c10 -8 24 -14 29 -14 6 0 1 6 -9 14 -11 8 -24 15 -30 15
-5 0 -1 -7 10 -15z"/>
<path d="M1613 3972 c15 -15 36 -28 48 -29 21 -2 20 0 -6 28 -16 16 -38 29
-49 29 -18 0 -18 -2 7 -28z"/>
<path d="M1676 3980 c19 -12 39 -18 49 -14 16 7 16 8 -1 17 -10 6 -31 12 -48
13 l-31 4 31 -20z m34 0 c8 -5 11 -10 5 -10 -5 0 -17 5 -25 10 -8 5 -10 10 -5
10 6 0 17 -5 25 -10z"/>
<path d="M1818 3983 c7 -3 16 -2 19 1 4 3 -2 6 -13 5 -11 0 -14 -3 -6 -6z"/>
<path d="M1870 3980 c-15 -5 -18 -8 -8 -9 9 -1 25 -4 35 -7 13 -4 15 -3 4 4
-11 8 -11 10 0 15 21 8 -3 6 -31 -3z"/>
<path d="M2287 3973 c-9 -2 -15 -8 -12 -13 3 -5 1 -11 -5 -15 -5 -3 -10 -1
-10 4 0 25 -35 7 -86 -43 -55 -56 -61 -69 -44 -96 8 -12 10 -10 10 9 0 31 12
19 27 -27 10 -29 11 -30 7 -7 -11 54 -14 105 -6 102 4 -1 9 3 11 8 7 15 24 30
49 44 21 11 22 10 22 -24 0 -20 9 -53 20 -74 22 -43 93 -109 127 -117 12 -4
20 -11 17 -19 -3 -7 0 -16 7 -21 9 -5 10 -2 5 11 -6 16 -2 17 41 12 54 -6 24
7 -38 17 -77 13 -158 103 -159 176 0 29 45 78 53 58 4 -10 6 -10 6 0 2 21 31
13 41 -10 8 -21 9 -21 10 -3 1 19 1 19 13 -2 14 -26 75 -73 94 -73 7 0 13 7
13 15 0 8 5 15 11 15 5 0 7 -5 3 -12 -4 -7 -3 -8 4 -4 7 4 12 3 12 -3 0 -5 -6
-12 -12 -14 -8 -3 -6 -6 5 -6 9 -1 17 -6 17 -13 0 -6 3 -8 7 -4 4 4 15 -8 25
-26 9 -18 17 -26 18 -17 1 40 -123 160 -164 159 -6 0 -2 -6 9 -12 51 -27 64
-39 59 -52 -3 -8 -13 -12 -25 -9 -23 6 -71 61 -64 73 10 16 -72 25 -118 13z"/>
<path d="M2658 3961 c12 -11 22 -27 22 -38 0 -14 2 -15 9 -4 7 11 13 7 26 -18
16 -32 38 -37 43 -10 1 8 -24 30 -60 52 -35 20 -53 29 -40 18z"/>
<path d="M1930 3955 c-14 -8 -33 -14 -42 -15 -10 0 -18 -4 -18 -10 0 -16 22
-11 65 15 42 26 38 35 -5 10z"/>
<path d="M1752 3952 c-9 -6 -5 -12 13 -20 14 -7 34 -12 43 -11 11 1 8 4 -8 9
-14 4 -18 9 -10 9 13 1 13 2 0 11 -18 12 -22 12 -38 2z"/>
<path d="M1833 3953 c9 -2 25 -2 35 0 9 3 1 5 -18 5 -19 0 -27 -2 -17 -5z"/>
<path d="M1585 3940 c3 -5 11 -10 16 -10 6 0 7 5 4 10 -3 6 -11 10 -16 10 -6
0 -7 -4 -4 -10z"/>
<path d="M2780 3937 c0 -9 72 -57 85 -57 5 0 1 6 -10 13 -50 35 -75 49 -75 44z"/>
<path d="M1682 3921 c-21 -13 79 -51 132 -51 25 0 46 5 46 10 0 6 -15 10 -32
10 -18 0 -53 9 -77 20 -49 23 -51 23 -69 11z"/>
<path d="M1651 3886 c56 -38 132 -60 176 -50 36 7 34 8 -33 14 -51 4 -83 14
-117 33 -57 34 -74 35 -26 3z"/>
<path d="M2211 3894 c0 -11 3 -14 6 -6 3 7 2 16 -1 19 -3 4 -6 -2 -5 -13z"/>
<path d="M2326 3878 c24 -44 135 -107 167 -95 7 3 4 6 -6 6 -42 2 -133 58
-121 75 2 3 1 4 -3 1 -3 -3 -15 3 -26 12 -18 16 -19 16 -11 1z"/>
<path d="M2780 3870 c6 -12 21 -20 35 -20 33 0 31 6 -5 25 -38 20 -43 19 -30
-5z"/>
<path d="M2910 3855 c14 -8 30 -14 35 -14 6 0 -1 6 -15 14 -14 8 -29 14 -35
14 -5 0 1 -6 15 -14z"/>
<path d="M2696 3840 c4 -14 13 -34 20 -45 16 -23 19 -12 4 15 -7 13 -7 21 2
26 6 4 8 3 4 -4 -3 -6 -2 -13 2 -16 5 -3 8 5 7 17 -3 31 -3 31 -19 18 -11 -9
-15 -9 -20 1 -3 7 -3 2 0 -12z"/>
<path d="M2800 3832 c0 -9 38 -52 46 -52 2 0 0 9 -6 20 -6 11 -7 20 -3 20 10
0 -19 20 -29 20 -5 0 -8 -4 -8 -8z"/>
<path d="M3247 3819 c17 -11 39 -31 48 -45 9 -14 19 -23 23 -20 3 4 22 -8 41
-26 l36 -33 -30 33 c-35 38 -128 112 -141 112 -5 0 5 -9 23 -21z"/>
<path d="M2203 3782 c0 -40 1 -43 7 -17 4 17 8 22 9 12 1 -23 31 -68 41 -62 4
3 13 -2 20 -10 7 -8 17 -15 23 -15 5 0 -2 9 -16 20 -14 11 -38 43 -54 70 l-29
49 -1 -47z"/>
<path d="M2860 3825 c0 -19 26 -55 37 -51 8 3 11 1 8 -4 -3 -6 -1 -10 4 -10
15 0 14 43 -1 58 -11 11 -48 17 -48 7z"/>
<path d="M3150 3805 c-16 -30 -24 -31 -95 -4 -31 12 -58 19 -61 16 -5 -5 137
-57 156 -57 6 0 8 4 5 10 -3 5 2 21 11 35 9 14 12 25 7 25 -5 0 -16 -11 -23
-25z"/>
<path d="M3235 3789 c25 -23 43 -44 41 -47 -3 -2 -26 1 -52 7 -25 7 -48 10
-51 8 -2 -3 19 -10 47 -17 76 -18 86 -2 30 50 -24 22 -47 40 -51 40 -5 0 12
-19 36 -41z"/>
<path d="M2100 3794 c0 -8 5 -12 10 -9 6 4 8 11 5 16 -9 14 -15 11 -15 -7z"/>
<path d="M2949 3787 c7 -9 18 -14 24 -10 5 3 7 1 4 -4 -4 -6 2 -18 13 -28 11
-10 20 -15 20 -10 0 4 8 -3 19 -16 16 -20 22 -22 44 -12 22 10 41 7 127 -22
136 -46 182 -52 201 -28 13 16 12 17 -3 5 -12 -10 -30 -12 -59 -7 -55 9 -150
43 -124 44 11 1 -29 21 -90 46 -60 24 -111 42 -113 40 -2 -1 33 -18 77 -36 44
-18 79 -34 77 -37 -2 -2 -48 15 -103 38 -142 60 -130 56 -114 37z m65 -38 c19
3 26 0 26 -10 0 -6 -5 -7 -12 -2 -7 4 -17 8 -22 8 -5 0 -11 7 -13 15 -4 12 -3
12 5 2 5 -8 12 -13 16 -13z m37 -32 c-10 -9 -11 -8 -5 6 3 10 9 15 12 12 3 -3
0 -11 -7 -18z m146 -13 c-3 -3 -12 -4 -19 -1 -8 3 -5 6 6 6 11 1 17 -2 13 -5z"/>
<path d="M2130 3758 c0 -19 -2 -20 -11 -8 -9 12 -9 11 -4 -5 4 -11 11 -36 15
-55 4 -19 8 -29 9 -21 1 11 5 10 16 -5 14 -18 14 -17 8 15 -4 25 -3 32 5 27
14 -8 15 3 3 22 -6 10 -10 8 -15 -10 -9 -33 -26 -3 -19 34 3 15 3 28 -1 28 -3
0 -6 -10 -6 -22z"/>
<path d="M2518 3745 c3 -28 8 -35 26 -34 15 0 17 2 6 7 -8 4 -16 17 -17 30 -2
18 2 22 26 22 22 0 30 -5 33 -24 3 -14 1 -31 -3 -38 -11 -17 -11 -58 0 -58 11
0 20 58 14 98 -5 30 -8 32 -47 32 l-42 0 4 -35z"/>
<path d="M2742 3768 c6 -19 100 -88 120 -88 9 0 20 -4 23 -10 8 -13 25 -13 25
0 0 6 -8 14 -17 17 -10 4 -38 21 -63 38 -68 47 -93 60 -88 43z"/>
<path d="M2082 3705 c0 -16 2 -22 5 -12 2 9 2 23 0 30 -3 6 -5 -1 -5 -18z"/>
<path d="M2199 3715 c16 -30 40 -59 45 -54 2 2 -10 20 -26 39 -17 19 -25 26
-19 15z"/>
<path d="M2380 3701 c0 -6 4 -13 10 -16 6 -3 7 1 4 9 -7 18 -14 21 -14 7z"/>
<path d="M2550 3670 c0 -16 4 -30 8 -30 5 0 7 14 4 30 -2 17 -6 30 -8 30 -2 0
-4 -13 -4 -30z"/>
<path d="M3253 3693 c9 -2 25 -2 35 0 9 3 1 5 -18 5 -19 0 -27 -2 -17 -5z"/>
<path d="M3351 3684 c0 -11 3 -14 6 -6 3 7 2 16 -1 19 -3 4 -6 -2 -5 -13z"/>
<path d="M2965 3681 c-22 -3 -41 -11 -42 -17 -2 -9 14 -8 55 3 87 23 82 28
-13 14z"/>
<path d="M2090 3652 c0 -27 41 -91 81 -126 37 -31 131 -76 159 -76 18 0 10 19
-11 31 -15 8 -19 8 -15 0 22 -34 -98 24 -144 71 -18 18 -41 51 -51 73 -10 22
-19 34 -19 27z"/>
<path d="M2405 3640 c19 -8 83 -14 74 -6 -2 2 -24 6 -49 9 -30 4 -38 3 -25 -3z"/>
<path d="M2166 3631 c41 -36 105 -81 131 -95 51 -25 53 -18 3 10 -25 14 -60
39 -77 57 -18 17 -40 32 -49 33 -9 2 -13 -1 -8 -5z"/>
<path d="M2299 3606 c34 -35 55 -50 32 -23 -6 8 -9 16 -6 18 2 3 -10 13 -28
23 l-32 19 34 -37z"/>
<path d="M2558 3600 c-10 -18 -25 -30 -38 -30 -20 0 -20 1 -4 28 l17 27 -25
-29 c-26 -30 -37 -31 -138 -11 -14 2 -7 -2 15 -9 22 -8 65 -15 95 -15 l54 -1
-22 -22 c-18 -19 -33 -23 -86 -23 -35 0 -62 -3 -59 -7 2 -5 20 -8 39 -8 19 0
34 -5 34 -11 0 -6 -9 -8 -21 -4 -16 5 -19 4 -14 -6 6 -9 4 -11 -7 -6 -9 3 -24
-1 -35 -9 -16 -14 -15 -15 22 -9 46 7 111 42 141 77 29 32 67 98 57 98 -4 0
-16 -14 -25 -30z"/>
<path d="M2190 3586 c0 -11 30 -66 36 -66 2 0 -3 15 -12 33 -19 36 -24 44 -24
33z"/>
<path d="M2140 1842 c-43 -23 -55 -42 -47 -74 15 -57 92 -51 138 11 23 31 43
33 35 3 -2 -10 -7 -28 -10 -42 -3 -17 -18 -32 -40 -43 -33 -15 -36 -15 -46 1
-10 15 -11 15 -5 -3 4 -11 11 -49 17 -85 6 -36 13 -67 15 -70 3 -3 3 13 0 36
-7 41 -6 41 42 67 27 15 51 27 53 27 6 0 23 -59 44 -155 9 -44 28 -96 40 -115
l24 -34 -25 -14 c-15 -8 -28 -25 -31 -42 -4 -16 -14 -36 -24 -45 -16 -15 -19
-12 -44 42 -15 31 -38 95 -51 142 -13 47 -24 78 -24 67 -2 -34 31 -141 65
-215 30 -65 33 -78 24 -110 -18 -65 -11 -257 21 -538 16 -152 28 -281 26 -287
-3 -7 2 -48 9 -93 l14 -81 -35 -35 c-43 -43 -45 -76 -7 -118 22 -24 33 -30 50
-25 12 4 22 12 22 18 0 6 -7 5 -17 -3 -10 -7 -5 1 11 19 17 18 32 32 34 32 3
0 -3 -9 -13 -20 -35 -39 -1 -19 71 40 77 64 95 73 70 38 -9 -12 -16 -32 -16
-44 0 -25 45 -84 63 -84 7 1 39 23 72 50 33 27 77 62 97 77 21 16 38 31 38 35
0 4 -14 29 -30 55 -38 61 -48 124 -42 253 5 98 5 100 29 100 20 0 81 24 84 33
0 1 4 37 8 80 6 55 14 84 28 100 33 37 43 84 43 211 0 138 -15 185 -70 228
l-32 25 36 49 c19 27 47 63 61 81 41 50 53 210 22 284 -23 55 -86 119 -142
145 -56 27 -151 32 -215 13 -59 -18 -131 -78 -159 -132 -33 -64 -37 -183 -8
-238 18 -33 18 -39 4 -59 -15 -21 -15 -21 -35 12 -11 18 -31 84 -45 145 -15
62 -35 131 -46 154 -13 26 -18 51 -14 70 7 36 -20 51 -43 23 -14 -17 -15 -17
-10 -1 5 16 -24 57 -42 57 -4 0 -23 -8 -42 -18z m54 -13 c-3 -6 0 -15 7 -20 7
-4 10 -11 6 -16 -4 -4 -17 -2 -27 5 -11 7 -20 8 -20 3 0 -5 12 -13 26 -18 23
-8 24 -10 11 -21 -13 -11 -19 -9 -36 9 -12 13 -21 18 -21 12 0 -6 7 -16 15
-23 9 -7 13 -15 10 -18 -3 -3 -17 5 -31 19 l-27 24 13 -25 c12 -23 12 -24 -3
-11 -25 20 -21 47 9 70 28 22 80 30 68 10z m599 -24 c51 -24 106 -81 130 -134
22 -50 29 -167 10 -179 -5 -4 -18 -21 -27 -39 -18 -36 -43 -53 -79 -53 -35 0
-37 6 -14 63 29 73 28 177 -2 239 -24 49 -90 131 -91 112 0 -6 9 -19 21 -30
61 -55 94 -164 77 -256 -14 -74 -33 -107 -57 -101 -18 5 -19 7 -6 27 7 11 19
42 26 69 20 83 -16 211 -80 281 l-26 29 41 -6 c23 -2 57 -12 77 -22z m-505
-119 c-22 -16 -78 -46 -87 -46 -26 0 -8 30 32 53 36 21 43 23 50 10 5 -8 7
-16 5 -17z m467 -47 c0 -7 -8 -15 -17 -17 -18 -3 -25 18 -11 32 10 10 28 1 28
-15z m-288 -98 c5 -33 3 -41 -10 -41 -18 0 -33 59 -23 87 10 25 27 2 33 -46z
m283 15 c-1 -22 -39 -96 -51 -96 -6 0 -8 7 -5 16 3 9 9 34 12 57 9 68 13 75
30 53 8 -11 14 -25 14 -30z m-260 -124 c42 -32 97 -45 161 -38 54 6 59 5 59
-12 0 -26 -18 -32 -91 -32 -106 0 -180 56 -203 155 -7 28 -6 27 21 -12 15 -23
39 -50 53 -61z m406 -39 c-39 -36 -96 -46 -96 -18 0 10 10 15 29 15 33 0 90
42 92 68 1 10 4 6 6 -8 4 -18 -4 -32 -31 -57z m-160 -5 c-1 -19 4 -23 27 -23
25 1 27 0 11 -12 -31 -22 -74 23 -47 50 9 10 10 9 9 -15z m-253 -24 c92 -84
209 -101 320 -46 34 17 63 29 65 27 2 -2 -11 -19 -30 -38 -48 -50 -126 -79
-212 -79 -59 0 -66 -1 -41 -9 39 -13 119 -3 172 21 l41 18 22 -23 22 -23 -30
-16 c-97 -50 -286 -27 -419 50 -46 27 -52 46 -27 82 21 30 28 28 70 -18 20
-22 39 -39 41 -36 2 2 -10 17 -27 34 -28 28 -39 69 -23 85 10 11 13 9 56 -29z
m297 27 c0 -14 -18 -23 -30 -16 -6 4 -8 11 -5 16 8 12 35 12 35 0z m-140 -50
c41 1 85 -1 97 -5 12 -4 31 -3 41 3 10 5 24 6 31 2 21 -13 -70 -41 -134 -41
-42 0 -75 7 -112 25 -56 25 -73 42 -25 24 15 -6 61 -9 102 -8z m-265 -96 c48
-32 132 -63 230 -84 l80 -18 21 -89 c18 -73 21 -108 16 -197 -4 -86 -2 -111 9
-117 11 -7 9 -15 -10 -41 -20 -27 -22 -34 -11 -55 17 -31 6 -274 -13 -286 -6
-4 -31 -8 -54 -8 -31 0 -45 5 -52 18 -15 28 -50 171 -57 235 -4 31 -10 57 -13
57 -4 0 -20 -62 -35 -137 -16 -76 -32 -146 -38 -156 -7 -14 -19 -17 -51 -15
l-42 3 -28 240 c-37 308 -42 579 -13 638 10 20 20 37 22 37 2 0 19 -11 39 -25z
m523 -104 c14 -45 15 -219 3 -275 -5 -21 -15 -44 -21 -50 -9 -8 -10 -4 -4 18
16 64 7 190 -18 273 -17 56 -22 85 -15 92 16 16 42 -12 55 -58z m-72 28 c20
-34 44 -162 43 -239 -1 -132 -3 -134 -78 -138 l-64 -3 7 84 c5 66 3 101 -14
170 -11 48 -20 94 -20 101 0 7 22 17 53 23 28 5 55 11 59 11 4 1 10 -3 14 -9z
m22 -401 c-3 -8 -27 -14 -61 -16 -48 -3 -56 -1 -51 13 8 20 118 22 112 3z m-8
-87 c0 -23 -8 -48 -19 -62 l-18 -23 5 32 c2 20 0 32 -7 32 -6 0 -11 -2 -11 -4
0 -2 -3 -12 -7 -22 -5 -12 -3 -15 6 -9 10 6 11 3 2 -14 -14 -25 -23 -28 -14
-3 6 15 5 16 -12 2 -17 -15 -18 -14 -1 20 l17 35 -25 -30 c-26 -30 -35 -21
-16 16 12 21 1 26 -18 7 -19 -19 -14 1 9 33 17 25 27 29 65 29 l44 0 0 -39z
m-291 -211 c11 -52 28 -137 37 -188 16 -89 16 -93 -2 -106 -16 -12 -20 -11
-33 13 -47 85 -61 117 -61 142 0 15 -6 29 -13 31 -10 2 -7 29 12 122 28 132
28 132 60 -14z m-66 -161 c3 -22 16 -57 30 -77 l24 -37 -93 -78 c-52 -42 -100
-77 -107 -77 -8 0 -20 11 -27 24 -10 20 -10 31 0 55 7 17 15 31 19 31 3 1 16
9 28 19 21 18 21 20 8 77 -23 94 -23 92 43 97 31 2 60 4 63 5 4 1 9 -16 12
-39z m237 13 c0 -16 11 -51 25 -78 l26 -49 -58 -52 c-72 -65 -60 -70 14 -7 30
26 55 45 57 43 2 -2 -38 -37 -88 -78 -50 -41 -78 -60 -62 -43 35 38 26 42 -16
7 -36 -30 -54 -32 -68 -6 -18 34 -11 59 27 96 l36 35 -11 64 c-7 35 -12 68
-12 74 0 6 25 13 58 15 31 2 60 4 65 5 4 1 7 -11 7 -26z m-200 -167 c-7 -9
-32 -30 -54 -47 -35 -26 -34 -24 9 15 52 48 67 58 45 32z"/>
<path d="M2344 1122 c-25 -16 -34 -56 -34 -150 0 -129 4 -134 156 -158 61 -9
118 -15 127 -11 15 6 17 25 17 147 0 77 -1 140 -2 140 -2 0 -55 9 -118 20
-129 22 -131 22 -146 12z m156 -26 c36 -6 61 -14 55 -17 -14 -8 -208 24 -199
33 7 8 27 6 144 -16z m-64 -16 c32 -6 74 -13 92 -16 l33 -5 -3 -112 -3 -112
-30 2 c-16 1 -67 7 -112 14 l-83 11 0 114 c0 131 -8 123 106 104z m162 -141
l-3 -124 -35 -1 c-30 -1 -30 -1 -5 3 l30 4 -5 122 c-6 126 -4 145 11 130 6 -6
8 -66 7 -134z m-161 -105 c-3 -3 -12 -4 -19 -1 -8 3 -5 6 6 6 11 1 17 -2 13
-5z m66 -11 c-7 -2 -19 -2 -25 0 -7 3 -2 5 12 5 14 0 19 -2 13 -5z"/>
</g>
</svg>
